PathFileType	4	(X/Y/Z)	walk-thru1-5-TP.trc
DataRate	CameraRate	NumFrames	NumMarkers	Units	OrigDataRate	OrigDataStartFrame	OrigNumFrames
120.00	120.00	       4	60	mm	120.00	261	       521
Frame#	Time	Top.Head			Front.Head			Rear.Head			Jaw			C7			R.Clavicle			L.Clavicle			R.Shoulder			L.Shoulder			R.Scapula			L.Scapula			R.Scap.Inf			R.Biceps.Lateral			R.Elbow			R.Elbow.Medial			R.Forearm			R.Ulna			R.Radius			R.Wrist			R.Thumb.M1			R.Thumb.M2			R.Thumb.M3			R.Finger3.M1			R.Finger3.M2			R.Finger3.M3			L.Biceps.Lateral			L.Elbow			L.Elbow.Medial			L.Forearm			L.Ulna			L.Radius			L.Wrist			L.Thumb.M1			L.Thumb.M2			L.Thumb.M3			L.Finger3.M1			L.Finger3.M2			L.Finger3.M3			V.Sacral			R.ASIS			L.ASIS			R.Thigh			R.Thigh.Front			R.Knee			R.Knee.Medial			R.Shank			R.Ankle			R.Ankle.Medial			R.Heel			R.Toe			R.MedFoot			L.Thigh			L.Knee			L.Knee.Medial			L.Shank			L.Ankle			L.Ankle.Medial			L.Heel			L.Toe			L.MedFoot			V_mid_ASIS			V_R_Knee_JC			V_L_Knee_JC			V_R_Elbow_JC			V_L_Elbow_JC			V_R_Ankle_JC			V_L_Ankle_JC			V_R_Wrist_JC			V_L_Wrist_JC			V_R_ScaTrpz_1stMC_JC			V_R_1stMC_1stPP_JC			V_R_1stPP_1stDP_JC			V_R_LunCap_3rdMC_JC			V_R_3rdMC_3rdPP_JC			V_R_3rdPP_3rdMP_JC			V_R_3rdMP_3rdDP_JC			V_L_ScaTrpz_1stMC_JC			V_L_1stMC_1stPP_JC			V_L_1stPP_1stDP_JC			V_L_LunCap_3rdMC_JC			V_L_3rdMC_3rdPP_JC			V_L_3rdPP_3rdMP_JC			V_L_3rdMP_3rdPP_JC			V_ROOT_JC			V_R_Hip_JC			V_L_Hip_JC			V_R_GlenHum_JC			V_L_GlenHum_JC			V_ForeHead_Ctr			V_Vertex			V_Sagit_Lambdoid_Suture			V_R_FrontoTemp			V_L_FrontoTemporal			V_R_ParietalOccip			V_L_ParietalOcciptal			V_R_Temporal			V_L_Temporal			V_mid_FrontRearHead			V_mid_RLGlenHumCtrs			V_C7_vert			V_C1_vert			V_Mid_Hip			
		X1	Y1	Z1	X2	Y2	Z2	X3	Y3	Z3	X4	Y4	Z4	X5	Y5	Z5	X6	Y6	Z6	X7	Y7	Z7	X8	Y8	Z8	X9	Y9	Z9	X10	Y10	Z10	X11	Y11	Z11	X12	Y12	Z12	X13	Y13	Z13	X14	Y14	Z14	X15	Y15	Z15	X16	Y16	Z16	X17	Y17	Z17	X18	Y18	Z18	X19	Y19	Z19	X20	Y20	Z20	X21	Y21	Z21	X22	Y22	Z22	X23	Y23	Z23	X24	Y24	Z24	X25	Y25	Z25	X26	Y26	Z26	X27	Y27	Z27	X28	Y28	Z28	X29	Y29	Z29	X30	Y30	Z30	X31	Y31	Z31	X32	Y32	Z32	X33	Y33	Z33	X34	Y34	Z34	X35	Y35	Z35	X36	Y36	Z36	X37	Y37	Z37	X38	Y38	Z38	X39	Y39	Z39	X40	Y40	Z40	X41	Y41	Z41	X42	Y42	Z42	X43	Y43	Z43	X44	Y44	Z44	X45	Y45	Z45	X46	Y46	Z46	X47	Y47	Z47	X48	Y48	Z48	X49	Y49	Z49	X50	Y50	Z50	X51	Y51	Z51	X52	Y52	Z52	X53	Y53	Z53	X54	Y54	Z54	X55	Y55	Z55	X56	Y56	Z56	X57	Y57	Z57	X58	Y58	Z58	X59	Y59	Z59	X60	Y60	Z60	

261	2.167	194.32825	56.36972	1792.92334	94.59465	49.33394	1680.17285	322.18970	50.09770	1696.36353	140.61195	52.51151	1514.31335	335.42819	45.36168	1560.88989	242.53206	166.84001	1463.83337	226.21677	-60.81411	1465.83569	289.08728	251.17740	1457.83350	285.89145	-159.06561	1477.77368	392.19861	131.39259	1477.00977	384.53769	-37.71974	1480.96545	442.34293	138.45428	1390.97766	347.85190	306.03311	1281.80261	389.91849	319.46289	1130.77234	404.48364	228.43611	1114.61340	301.60471	270.93140	1014.71558	340.43488	311.26352	913.80017	273.69543	254.34256	884.20526	282.83527	292.12830	836.81317	263.24167	249.43092	850.57068	226.20604	222.45139	806.41083	189.92386	222.68996	777.60779	242.64664	298.20288	767.07733	223.66577	259.00906	714.20258	235.88043	212.12260	692.73785	302.99091	-227.57870	1330.43298	309.02951	-276.52411	1155.51660	361.66364	-217.35413	1135.84155	241.19191	-241.28775	1053.91699	281.76828	-271.07153	961.35913	218.15082	-208.70865	915.19049	216.96251	-243.36803	858.82721	207.64915	-194.38429	850.59760	216.35600	-161.49107	800.38647	206.07642	-167.53662	737.75513	195.20093	-256.41724	784.61023	208.38501	-240.36964	727.11572	232.43806	-224.87196	682.66211	438.86526	30.60356	1083.27502	350.57803	220.16840	1020.86847	337.10941	-154.03113	1028.66309	228.65318	186.13919	623.08392	128.59694	104.96971	580.47894	172.90533	153.58089	512.61267	160.76752	41.42106	515.51721	100.66315	118.73145	348.88174	110.56579	137.24464	73.39626	68.89274	50.45404	111.52346	147.27493	69.62065	37.41560	-65.34901	127.68480	104.51733	-10.61864	81.43575	106.54893	353.98444	-128.39568	644.04956	361.35648	-103.84949	494.26495	355.78415	11.27089	496.03751	401.26776	-47.43555	297.66342	553.23822	-59.19529	83.45961	514.56458	33.95156	117.72929	606.78424	5.14390	78.46233	373.73471	-19.58754	46.38295	433.82925	11.34969	73.78921																																																																																																																															
262	2.175	187.69630	55.12460	1793.20459	88.92091	51.54666	1679.55103	316.96317	52.60733	1694.72498	134.91019	52.31897	1513.23767	330.08618	49.14657	1560.20068	237.04929	166.94684	1462.33484	220.19682	-59.16286	1465.02881	282.46439	252.47127	1457.45703	280.66904	-158.69833	1476.63965	386.03906	133.10132	1476.43921	379.28979	-35.54205	1480.44031	435.92667	140.00986	1389.21667	341.61707	306.11697	1281.24866	383.85910	320.81580	1129.15845	397.93118	229.05591	1112.63025	296.70264	271.94702	1013.49249	334.11526	311.45309	912.97058	266.89255	255.03749	883.28809	277.00803	291.21423	834.97821	255.88698	248.50279	849.36987	220.41428	221.23615	804.37024	183.10062	221.99779	775.91797	235.89142	299.54547	765.66394	217.55431	258.88968	713.28156	227.53793	213.73833	690.77582	298.59924	-226.60849	1329.42078	304.44394	-275.70871	1155.26477	357.74243	-216.95576	1135.37500	237.35962	-241.56117	1053.30969	278.62759	-271.08636	960.55780	214.47974	-208.64912	914.12762	213.23936	-244.13101	856.77094	203.77655	-195.04680	850.02924	213.23340	-160.63646	799.08667	204.18675	-166.74600	737.90021	193.18018	-256.65549	783.87305	204.85727	-240.55424	726.20050	229.39851	-225.39803	681.74915	432.33728	31.43216	1081.78406	344.41458	222.80711	1019.61517	330.38474	-151.36308	1028.18018	220.85260	186.83821	622.74304	120.59439	103.73627	580.42334	164.77498	153.42874	512.06500	153.64673	40.21164	514.93970	94.46398	117.13599	347.62833	107.09499	135.54236	71.77892	64.93531	48.54217	109.72390	144.03644	68.07179	36.83561	-69.78528	126.49662	101.53050	-15.05244	78.38308	103.95441	349.27606	-128.39003	643.38763	357.17432	-103.43593	493.01743	351.54306	10.42065	494.32700	399.43503	-47.47768	297.34436	552.54626	-59.67088	84.40440	513.56946	33.87728	118.77551	606.96094	4.18804	79.64677	373.45874	-20.04986	46.32468	433.45908	11.28313	73.84861																																																																																																																															
263	2.183	183.70819	57.74718	1790.86145	83.76725	51.25410	1678.31799	312.33807	52.76945	1693.63196	129.25493	53.04218	1512.31226	324.00623	48.31936	1558.67200	230.94954	169.38026	1462.11475	214.33032	-58.75441	1463.91455	277.05804	253.75705	1455.80347	275.33490	-156.71988	1475.86194	379.85837	134.06189	1475.80640	372.84457	-35.57039	1479.00256	430.15958	141.33910	1388.26367	333.49146	307.51401	1280.08289	376.17990	321.44614	1128.39148	391.55487	231.22903	1112.21448	288.19421	272.18011	1011.94769	326.98193	312.50293	910.97919	259.61307	255.62758	883.21564	270.08292	292.53821	833.05371	249.97542	250.73174	848.75732	211.79738	222.43617	802.75482	176.00682	223.85596	775.24451	227.96739	300.24683	765.01965	209.50403	260.40588	712.84735	220.60423	213.10428	690.29779	293.67059	-225.59592	1328.96265	300.42130	-275.48874	1154.28235	352.80923	-215.79147	1134.13965	233.09309	-240.89256	1051.42822	274.73389	-269.90161	959.83081	212.32651	-208.09236	913.50214	210.05301	-242.78125	855.78699	201.19196	-194.44173	848.72467	209.38969	-160.97467	797.43219	198.61940	-166.17711	737.25793	189.86957	-256.61618	782.50323	203.10666	-240.77003	725.44965	227.36882	-225.78384	680.98065	425.89886	32.36747	1080.84814	334.47314	221.78375	1017.83575	323.70511	-151.66571	1028.61536	212.69315	186.52469	622.40790	113.02744	103.63400	580.02740	156.53415	153.14880	511.41409	146.58821	39.25443	513.97638	88.14304	117.68040	346.19858	102.63925	133.75436	70.99116	61.67382	47.19115	107.33347	141.34833	66.77739	36.15686	-73.13715	123.73795	98.11061	-18.55430	75.21040	101.17711	344.07101	-128.09386	643.12451	352.96704	-103.60437	492.00238	346.65884	10.98745	493.95319	397.56784	-46.07238	296.81964	552.03259	-60.17748	85.33820	513.45264	33.43768	119.73173	606.61005	4.31951	80.90996	373.68512	-19.60465	46.16250	432.97192	10.94327	73.95001																																																																																																																															
264	2.192	176.04875	57.60279	1792.19202	77.65797	51.69583	1677.16663	304.92056	55.91347	1692.65063	122.41352	53.87967	1511.20447	318.36050	50.18502	1556.72314	224.61461	168.93089	1461.09155	209.47183	-57.22148	1463.66736	270.44202	254.45500	1455.09912	269.88062	-156.67366	1475.20203	374.03867	136.05760	1474.08423	366.89011	-33.28079	1478.61658	423.81488	141.44429	1387.37646	328.16168	309.21066	1278.65210	369.27252	321.73715	1126.68213	383.38956	231.61674	1111.34253	283.00745	274.76401	1010.93140	319.33960	313.60043	910.55737	252.46848	256.20209	882.06274	261.91785	293.97937	833.10266	242.93988	249.61697	848.08258	205.52965	222.36177	802.36798	169.29584	223.31764	774.07483	220.86758	299.98819	762.98163	202.87239	260.42618	711.83649	212.94052	214.83696	689.30066	288.79230	-225.03264	1328.17883	295.87067	-275.48898	1153.58276	348.37161	-215.66277	1133.78162	228.76651	-240.80751	1050.68408	271.26837	-270.08270	958.75952	208.05275	-208.18268	912.62030	206.96689	-242.34137	854.95197	198.18275	-193.78722	846.27454	206.11516	-161.39171	797.12482	194.77440	-166.09656	735.74805	187.13329	-256.83356	781.48297	200.30798	-240.34497	723.97693	224.99464	-224.48288	679.98785	419.29907	33.07082	1079.21582	331.13266	224.03560	1017.12213	315.94672	-150.14844	1026.97876	203.68188	185.19856	621.81488	105.14719	103.05147	579.78046	148.52751	151.85423	510.08093	138.64307	39.20780	513.60394	82.23706	115.63184	343.53934	101.09321	132.60994	69.96557	59.94270	44.47947	104.28403	140.29636	65.17906	35.67374	-75.73235	120.24294	93.08867	-20.13130	71.81396	97.57060	338.84076	-128.94254	642.18011	348.41650	-103.39568	491.41956	342.77707	12.77163	493.23434	394.91891	-45.49955	296.95575	551.38269	-60.21672	86.40425	513.01501	33.57692	120.92036	606.02655	4.35617	82.67762	373.63284	-19.59298	46.06895	432.81754	10.98971	74.06494																																																																																																																															
